# xmcd
#
# Track frame offsets: 
#        180
#        12482
#        29170
#        40653
#        54992
#        71906
#        87953
#        101129
#        115715
#        132705
#        164201
#        173733
#        188212
#        202081
#        215424
#
# Disc length: 3193 seconds
#
# Revision: 0
# Processed by: cddbd v1.5.1PL0 Copyright (c) Steve Scherf et al.
# Submitted via: ExactAudioCopy v0.95a5
#
DISCID=e60c770f
DTITLE=Frank Wakefield - That Was Now...This Is Then
DYEAR=1996
DGENRE=Bluegrass
TTITLE0=Mexican Stomp
TTITLE1=Why Not Confess
TTITLE2=Miss Izzy
TTITLE3=Blackberry Blossom
TTITLE4=Sleepy Eyed John
TTITLE5=Sim and Birdie
TTITLE6=RockWood
TTITLE7=Emory Gap Blues
TTITLE8=New Camptown Races
TTITLE9=Waltz in Bluegrass
TTITLE10=Echo Blues
TTITLE11=Sabbatical
TTITLE12=Adirondack Spring
TTITLE13=Black Mountain Rag
TTITLE14=Roane County Coal Train
EXTD=
EXTT0=
EXTT1=
EXTT2=
EXTT3=
EXTT4=
EXTT5=
EXTT6=
EXTT7=
EXTT8=
EXTT9=
EXTT10=
EXTT11=
EXTT12=
EXTT13=
EXTT14=
PLAYORDER=
